<svg xmlns="http://www.w3.org/2000/svg" viewBox="0 0 108 108" role="img" aria-labelledby="title description">
  <title id="title">Money app icon</title>
  <desc id="description">A pink piggy bank with a gold coin on a white rounded square.</desc>
  <rect x="1" y="1" width="106" height="106" rx="24" fill="#FFFFFF" stroke="#E8E8E8" stroke-width="2" />
  <g transform="translate(54 54) scale(.88) translate(-54 -54) translate(-14.25 -12.8)">
    <path
      d="M98 73.339c0-11.108-12.762-20.113-28.5-20.113A39 39 0 0 0 58.84 54.684a12.562 12.562 0 0 0-16.548.548l5.976 4.687a19.967 19.967 0 0 0-5.817 7.061 2.027 2.027 0 0 1-2.1 1.214h-2.184a2.8 2.8 0 0 0-2.567 3.219l1.705 7.67a2.579 2.579 0 0 0 2.365 2.05h1.918A2.681 2.681 0 0 1 43.909 82.2a23.158 23.158 0 0 0 7.211 6.51l-.257 8.184A1.652 1.652 0 0 0 52.452 99h7.362A1.653 1.653 0 0 0 61.4 97.8l1.4-4.913a39.988 39.988 0 0 0 14.748-.258l1.484 5.171A1.653 1.653 0 0 0 80.621 99h7.519a1.652 1.652 0 0 0 1.588-2.106l-.5-9.046C94.63 84.187 98 79.042 98 73.339Z"
      fill="#FFC2C2"
      stroke="#333333"
      stroke-width="2.4"
      stroke-linecap="round"
      stroke-linejoin="round" />
    <circle cx="51" cy="68" r="2" fill="#333333" />
    <circle cx="93" cy="54" r="16" fill="#FFF1B6" stroke="#333333" stroke-width="2.4" />
    <path d="M93 43v21" fill="none" stroke="#333333" stroke-width="2.4" stroke-linecap="round" />
    <path d="M93.092 53.5a3.752 3.752 0 1 1 3.875-3.75M93.092 53.5a3.752 3.752 0 1 1-3.875 3.75" fill="none" stroke="#333333" stroke-width="2.4" />
    <path d="M62 59.006A28.446 28.446 0 0 1 78 59.3" fill="none" stroke="#333333" stroke-width="2.4" />
  </g>
</svg>
